<svg width="49" height="48" viewBox="0 0 49 48" fill="none" xmlns="http://www.w3.org/2000/svg">
<path d="M24.333 42C34.2741 42 42.333 33.9411 42.333 24C42.333 14.0589 34.2741 6 24.333 6C14.3919 6 6.33301 14.0589 6.33301 24C6.33301 33.9411 14.3919 42 24.333 42Z" stroke="#FEC00F" stroke-width="3" stroke-miterlimit="10"/>
<path d="M16.833 30H31.833" stroke="#FEC00F" stroke-width="3" stroke-linecap="round" stroke-linejoin="round"/>
<path d="M19.7705 20.25C19.7705 21.4581 18.7911 22.4375 17.583 22.4375C16.3749 22.4375 15.3955 21.4581 15.3955 20.25C15.3955 19.0419 16.3749 18.0625 17.583 18.0625C18.7911 18.0625 19.7705 19.0419 19.7705 20.25Z" fill="#FEC00F" stroke="#FEC00F" stroke-width="0.125"/>
<path d="M33.2705 20.25C33.2705 21.4581 32.2911 22.4375 31.083 22.4375C29.8749 22.4375 28.8955 21.4581 28.8955 20.25C28.8955 19.0419 29.8749 18.0625 31.083 18.0625C32.2911 18.0625 33.2705 19.0419 33.2705 20.25Z" fill="#FEC00F" stroke="#FEC00F" stroke-width="0.125"/>
</svg>
