<svg width="150" height="62" viewBox="0 0 150 62" fill="none" xmlns="http://www.w3.org/2000/svg">
<path d="M28.1397 30.9803C27.6039 30.1444 26.9609 29.3729 26.1465 28.6871C25.3321 28.0441 24.3891 27.5298 23.4033 27.1869C22.396 26.844 21.3244 26.6511 20.1885 26.6511C18.1525 26.6511 16.438 27.0368 15.0235 27.8298C13.6091 28.6228 12.4303 29.6301 11.5945 30.9803C10.7158 32.2662 10.0943 33.8092 9.68707 35.4809C9.25844 37.1526 9.08699 38.9099 9.08699 40.6888C9.08699 42.4461 9.27987 44.0749 9.68707 45.7037C10.1157 47.3111 10.7372 48.7685 11.5945 50.0972C12.4732 51.3831 13.6305 52.4333 15.0235 53.2262C16.3952 53.9978 18.1525 54.405 20.1885 54.405C22.9318 54.405 25.0964 53.5691 26.618 51.8975C28.1397 50.2258 29.1255 48.0184 29.447 45.2108H38.1482C37.9125 47.804 37.3338 50.1187 36.3694 52.1547C35.405 54.1907 34.1619 55.9695 32.5974 57.4268C31.0115 58.8842 29.2112 60.02 27.0681 60.7487C24.9464 61.5203 22.6532 61.906 20.1243 61.906C16.9952 61.906 14.1448 61.3702 11.7016 60.2344C9.19415 59.1628 7.07242 57.6411 5.33646 55.7337C3.57907 53.8478 2.29318 51.5546 1.37162 49.0042C0.450062 46.411 0 43.6463 0 40.6245C0 37.5812 0.450062 34.7308 1.37162 32.1161C2.29318 29.5015 3.6005 27.2083 5.33646 25.258C7.09385 23.2863 9.15129 21.7861 11.7016 20.6717C14.2091 19.5358 17.0381 19 20.1243 19C22.4174 19 24.5177 19.3429 26.5323 19.9644C28.5469 20.5859 30.3471 21.5504 31.9116 22.7934C33.4976 24.0364 34.8049 25.5581 35.8336 27.4226C36.8837 29.2872 37.5053 31.3446 37.8053 33.7449H29.1255C29.0398 32.7591 28.6969 31.8375 28.1397 30.9803Z" fill="white"/>
<path d="M63.5229 20.0503L78.8251 61.0275H69.5023L66.3733 51.8976H51.0712L47.8564 61.0275H38.8337L54.3288 20.0503H63.5229ZM64.0801 45.1681L58.9151 30.1446H58.808L53.4501 45.1681H64.0801Z" fill="white"/>
<path d="M89.2831 50.9117C89.7975 51.8761 90.4404 52.6691 91.2548 53.2263C92.0692 53.8264 93.0551 54.2764 94.1481 54.5122C95.2411 54.7694 96.4413 54.9408 97.5771 54.9408C98.3915 54.9408 99.2488 54.8551 100.17 54.7479C101.092 54.6408 101.949 54.3622 102.764 53.9764C103.578 53.5906 104.221 53.0977 104.757 52.3905C105.292 51.7475 105.571 50.8902 105.571 49.8615C105.571 48.7257 105.228 47.8684 104.521 47.1612C103.792 46.4539 102.849 45.8967 101.756 45.4038C100.599 44.9537 99.3345 44.5679 97.8772 44.225C96.4198 43.8821 94.941 43.4963 93.4623 43.0677C91.9192 42.6819 90.419 42.2319 88.9831 41.6318C87.5257 41.0317 86.2398 40.3673 85.1039 39.4672C83.9466 38.5885 83.0251 37.4955 82.3393 36.1882C81.6106 34.9023 81.2891 33.2949 81.2891 31.3875C81.2891 29.2658 81.7178 27.4655 82.6393 25.9225C83.518 24.3794 84.7182 23.0935 86.1327 22.0433C87.59 20.9932 89.2617 20.2431 91.0619 19.7502C92.8622 19.2358 94.7267 19.0215 96.5913 19.0215C98.713 19.0215 100.792 19.2572 102.764 19.7502C104.735 20.2645 106.514 21.0146 108.014 22.0648C109.557 23.1363 110.758 24.4865 111.679 26.1796C112.558 27.8513 113.029 29.8444 113.029 32.2448H104.285C104.199 31.0017 103.942 30.0159 103.514 29.2015C103.085 28.3871 102.464 27.7656 101.756 27.3155C101.028 26.8654 100.17 26.544 99.2488 26.3511C98.3272 26.1582 97.2771 26.0725 96.2055 26.0725C95.4768 26.0725 94.7482 26.1582 93.9981 26.3082C93.2694 26.4582 92.6264 26.7369 92.0263 27.1226C91.4263 27.5084 90.9548 27.9585 90.569 28.5585C90.1832 29.1586 89.9689 29.8444 89.9689 30.766C89.9689 31.5804 90.1189 32.2233 90.419 32.7377C90.719 33.2521 91.2977 33.7021 92.2192 34.1093C93.0979 34.538 94.341 34.9452 95.9698 35.3738C97.5557 35.8024 99.6346 36.3382 102.163 36.9597C102.935 37.1097 103.964 37.3883 105.378 37.7741C106.728 38.2027 108.079 38.8243 109.429 39.6815C110.779 40.5602 111.936 41.7175 112.901 43.1749C113.865 44.6322 114.358 46.5396 114.358 48.8328C114.358 50.7188 114.015 52.4762 113.286 54.0407C112.558 55.6052 111.486 56.9982 110.05 58.2198C108.614 59.3772 106.836 60.2987 104.692 60.9631C102.571 61.606 100.106 61.9275 97.3414 61.9275C95.0482 61.9275 92.9265 61.6489 90.7404 61.1131C88.6187 60.513 86.7327 59.6772 85.1039 58.4985C83.4966 57.3197 82.2107 55.7981 81.2248 53.9978C80.2604 52.1976 79.7889 49.9901 79.8532 47.4826H88.5544C88.533 48.79 88.7687 49.9473 89.2831 50.9117Z" fill="white"/>
<path d="M116.438 27.5942V20.0503H150V27.6371H137.72V61.006H128.719V27.5942H116.438Z" fill="white"/>
<path d="M77.7764 1.75781V11H76.0308V1.75781H77.7764ZM81.1787 5.59814V11H79.5029V4.13184H81.0771L81.1787 5.59814ZM80.9121 7.31836H80.417C80.4212 6.81901 80.4889 6.36621 80.6201 5.95996C80.7513 5.55371 80.9354 5.20459 81.1724 4.9126C81.4136 4.62061 81.6992 4.39632 82.0293 4.23975C82.3594 4.08317 82.7275 4.00488 83.1338 4.00488C83.4639 4.00488 83.7622 4.05143 84.0288 4.14453C84.2954 4.23763 84.5239 4.38574 84.7144 4.58887C84.909 4.79199 85.0571 5.05859 85.1587 5.38867C85.2645 5.71452 85.3174 6.11654 85.3174 6.59473V11H83.6289V6.58203C83.6289 6.26888 83.5824 6.02132 83.4893 5.83936C83.4004 5.65739 83.2692 5.52832 83.0957 5.45215C82.9264 5.37598 82.717 5.33789 82.4673 5.33789C82.2091 5.33789 81.9827 5.39079 81.7881 5.49658C81.5977 5.59814 81.4368 5.73991 81.3057 5.92188C81.1787 6.10384 81.0814 6.31331 81.0137 6.55029C80.946 6.78727 80.9121 7.04329 80.9121 7.31836ZM89.6147 9.80664C89.8517 9.80664 90.0633 9.76009 90.2495 9.66699C90.4357 9.57389 90.5838 9.44271 90.6938 9.27344C90.8081 9.10417 90.8695 8.90739 90.8779 8.68311H92.4585C92.45 9.1486 92.3188 9.56543 92.0649 9.93359C91.811 10.3018 91.4725 10.5938 91.0493 10.8096C90.6304 11.0212 90.1606 11.127 89.6401 11.127C89.1112 11.127 88.6499 11.0381 88.2563 10.8604C87.8628 10.6826 87.5348 10.4351 87.2725 10.1177C87.0143 9.80029 86.8197 9.43213 86.6885 9.01318C86.5615 8.59424 86.498 8.14567 86.498 7.66748V7.46436C86.498 6.98617 86.5615 6.5376 86.6885 6.11865C86.8197 5.69971 87.0143 5.33154 87.2725 5.01416C87.5348 4.69678 87.8628 4.44922 88.2563 4.27148C88.6499 4.09375 89.109 4.00488 89.6338 4.00488C90.1882 4.00488 90.6748 4.11279 91.0938 4.32861C91.5169 4.54443 91.847 4.84912 92.084 5.24268C92.3252 5.63623 92.45 6.09961 92.4585 6.63281H90.8779C90.8695 6.38737 90.8145 6.16732 90.7129 5.97266C90.6113 5.77799 90.4674 5.62142 90.2812 5.50293C90.0951 5.38444 89.8687 5.3252 89.6021 5.3252C89.3185 5.3252 89.0815 5.38444 88.8911 5.50293C88.7049 5.62142 88.5589 5.78434 88.4531 5.9917C88.3516 6.19482 88.2796 6.42334 88.2373 6.67725C88.1992 6.92692 88.1802 7.18929 88.1802 7.46436V7.66748C88.1802 7.94678 88.1992 8.21338 88.2373 8.46729C88.2796 8.72119 88.3516 8.94971 88.4531 9.15283C88.5589 9.35173 88.7049 9.51042 88.8911 9.62891C89.0815 9.7474 89.3228 9.80664 89.6147 9.80664ZM97.6636 9.36865V4.13184H99.3521V11H97.7651L97.6636 9.36865ZM97.8794 7.94678L98.3999 7.93408C98.3999 8.39535 98.3491 8.82064 98.2476 9.20996C98.146 9.59928 97.9873 9.93783 97.7715 10.2256C97.5599 10.5091 97.2912 10.7313 96.9653 10.8921C96.6395 11.0487 96.2544 11.127 95.8101 11.127C95.4715 11.127 95.1626 11.0804 94.8833 10.9873C94.604 10.89 94.3628 10.7397 94.1597 10.5366C93.9608 10.3293 93.8063 10.0648 93.6963 9.74316C93.5863 9.41732 93.5312 9.02588 93.5312 8.56885V4.13184H95.207V8.58154C95.207 8.81006 95.2324 9.00049 95.2832 9.15283C95.3382 9.30518 95.4123 9.43001 95.5054 9.52734C95.6027 9.62044 95.7148 9.68815 95.8418 9.73047C95.973 9.76855 96.1126 9.7876 96.2607 9.7876C96.667 9.7876 96.9865 9.70719 97.2192 9.54639C97.4562 9.38135 97.6255 9.1613 97.7271 8.88623C97.8286 8.60693 97.8794 8.29378 97.8794 7.94678ZM100.831 1.25H102.513V9.48291L102.348 11H100.831V1.25ZM106.931 7.49609V7.62939C106.931 8.14144 106.874 8.61117 106.76 9.03857C106.65 9.46598 106.483 9.83626 106.258 10.1494C106.034 10.4583 105.755 10.6995 105.42 10.873C105.09 11.0423 104.703 11.127 104.259 11.127C103.836 11.127 103.467 11.0444 103.154 10.8794C102.845 10.7144 102.585 10.4816 102.374 10.1812C102.162 9.87646 101.993 9.51888 101.866 9.1084C101.739 8.69368 101.644 8.24089 101.58 7.75V7.38818C101.644 6.89307 101.739 6.44027 101.866 6.02979C101.993 5.6193 102.162 5.26172 102.374 4.95703C102.585 4.65234 102.845 4.41748 103.154 4.25244C103.463 4.0874 103.827 4.00488 104.246 4.00488C104.695 4.00488 105.086 4.09163 105.42 4.26514C105.759 4.43441 106.038 4.67562 106.258 4.98877C106.483 5.29769 106.65 5.66585 106.76 6.09326C106.874 6.51644 106.931 6.98405 106.931 7.49609ZM105.249 7.62939V7.49609C105.249 7.2041 105.226 6.92904 105.179 6.6709C105.133 6.40853 105.056 6.1779 104.951 5.979C104.845 5.78011 104.701 5.62354 104.519 5.50928C104.337 5.39502 104.109 5.33789 103.833 5.33789C103.571 5.33789 103.347 5.38232 103.161 5.47119C102.979 5.56006 102.826 5.68278 102.704 5.83936C102.585 5.99593 102.492 6.18001 102.424 6.3916C102.361 6.60319 102.319 6.83171 102.297 7.07715V8.06738C102.327 8.39323 102.397 8.68734 102.507 8.94971C102.617 9.20785 102.78 9.41309 102.996 9.56543C103.216 9.71777 103.499 9.79395 103.846 9.79395C104.117 9.79395 104.343 9.74105 104.525 9.63525C104.707 9.52523 104.851 9.37288 104.957 9.17822C105.063 8.97933 105.137 8.7487 105.179 8.48633C105.226 8.22396 105.249 7.93831 105.249 7.62939ZM111.933 9.54004V6.37256C111.933 6.13981 111.893 5.9388 111.812 5.76953C111.732 5.60026 111.609 5.46908 111.444 5.37598C111.279 5.28288 111.07 5.23633 110.816 5.23633C110.592 5.23633 110.395 5.27441 110.226 5.35059C110.061 5.42676 109.934 5.53467 109.845 5.67432C109.756 5.80973 109.711 5.96631 109.711 6.14404H108.029C108.029 5.86051 108.097 5.5918 108.232 5.33789C108.368 5.07975 108.56 4.85124 108.81 4.65234C109.064 4.44922 109.367 4.29053 109.718 4.17627C110.073 4.06201 110.471 4.00488 110.911 4.00488C111.432 4.00488 111.895 4.09375 112.301 4.27148C112.712 4.44499 113.033 4.70736 113.266 5.05859C113.503 5.40983 113.622 5.85205 113.622 6.38525V9.38135C113.622 9.72412 113.643 10.0182 113.685 10.2637C113.732 10.5049 113.799 10.7144 113.888 10.8921V11H112.181C112.1 10.8265 112.039 10.6064 111.997 10.3398C111.954 10.069 111.933 9.80241 111.933 9.54004ZM112.168 6.81689L112.181 7.81348H111.121C110.858 7.81348 110.628 7.84098 110.429 7.896C110.23 7.94678 110.067 8.02295 109.94 8.12451C109.813 8.22184 109.718 8.34033 109.654 8.47998C109.591 8.6154 109.559 8.76986 109.559 8.94336C109.559 9.11263 109.597 9.26497 109.673 9.40039C109.754 9.53581 109.868 9.64372 110.016 9.72412C110.168 9.80029 110.346 9.83838 110.549 9.83838C110.846 9.83838 111.104 9.77913 111.324 9.66064C111.544 9.53792 111.715 9.38981 111.838 9.21631C111.961 9.04281 112.026 8.87777 112.035 8.72119L112.517 9.44482C112.458 9.61833 112.369 9.80241 112.25 9.99707C112.132 10.1917 111.98 10.3737 111.793 10.543C111.607 10.7122 111.383 10.8519 111.121 10.9619C110.858 11.0719 110.554 11.127 110.207 11.127C109.762 11.127 109.364 11.0381 109.013 10.8604C108.662 10.6826 108.385 10.4393 108.182 10.1304C107.979 9.82145 107.877 9.47021 107.877 9.07666C107.877 8.71273 107.945 8.39111 108.08 8.11182C108.215 7.83252 108.417 7.59766 108.683 7.40723C108.95 7.21257 109.28 7.06657 109.673 6.96924C110.071 6.86768 110.526 6.81689 111.038 6.81689H112.168ZM118.382 4.13184V5.33789H114.447V4.13184H118.382ZM115.5 2.44336H117.183V9.01953C117.183 9.22266 117.21 9.37923 117.265 9.48926C117.32 9.59928 117.403 9.67334 117.513 9.71143C117.623 9.74951 117.754 9.76855 117.906 9.76855C118.016 9.76855 118.118 9.76221 118.211 9.74951C118.304 9.73682 118.382 9.72412 118.446 9.71143L118.452 10.9683C118.312 11.0148 118.154 11.0529 117.976 11.0825C117.803 11.1121 117.606 11.127 117.386 11.127C117.009 11.127 116.679 11.0635 116.396 10.9365C116.112 10.8053 115.892 10.5959 115.735 10.3081C115.579 10.0161 115.5 9.63102 115.5 9.15283V2.44336ZM122.584 11.127C122.064 11.127 121.596 11.0423 121.182 10.873C120.767 10.7038 120.414 10.4689 120.122 10.1685C119.834 9.86377 119.612 9.51042 119.455 9.1084C119.303 8.70215 119.227 8.26628 119.227 7.80078V7.54688C119.227 7.0179 119.303 6.5376 119.455 6.10596C119.607 5.67008 119.823 5.29557 120.103 4.98242C120.382 4.66927 120.716 4.42806 121.105 4.25879C121.495 4.08952 121.924 4.00488 122.394 4.00488C122.881 4.00488 123.31 4.0874 123.683 4.25244C124.055 4.41325 124.366 4.64176 124.616 4.93799C124.865 5.23421 125.054 5.58968 125.181 6.00439C125.308 6.41488 125.371 6.86979 125.371 7.36914V8.07373H119.988V6.91846H123.721V6.7915C123.712 6.5249 123.661 6.28158 123.568 6.06152C123.475 5.83724 123.331 5.65951 123.137 5.52832C122.942 5.3929 122.69 5.3252 122.381 5.3252C122.132 5.3252 121.914 5.38021 121.728 5.49023C121.546 5.59603 121.393 5.74837 121.271 5.94727C121.152 6.14193 121.063 6.37467 121.004 6.64551C120.945 6.91634 120.915 7.2168 120.915 7.54688V7.80078C120.915 8.08854 120.953 8.35514 121.029 8.60059C121.11 8.84603 121.226 9.05973 121.378 9.2417C121.535 9.41943 121.721 9.55908 121.937 9.66064C122.157 9.75798 122.407 9.80664 122.686 9.80664C123.037 9.80664 123.355 9.73893 123.638 9.60352C123.926 9.46387 124.176 9.25863 124.387 8.98779L125.231 9.86377C125.088 10.0754 124.893 10.2785 124.647 10.4731C124.406 10.6678 124.114 10.8265 123.771 10.9492C123.429 11.0677 123.033 11.127 122.584 11.127ZM130.614 9.54004V1.25H132.303V11H130.779L130.614 9.54004ZM126.203 7.64844V7.51514C126.203 6.9904 126.262 6.51432 126.38 6.08691C126.503 5.65527 126.681 5.28499 126.914 4.97607C127.146 4.66715 127.428 4.42806 127.758 4.25879C128.092 4.08952 128.471 4.00488 128.894 4.00488C129.305 4.00488 129.662 4.0874 129.967 4.25244C130.276 4.41748 130.538 4.65234 130.754 4.95703C130.974 5.26172 131.15 5.62354 131.281 6.04248C131.412 6.45719 131.507 6.91423 131.566 7.41357V7.77539C131.507 8.26204 131.412 8.7085 131.281 9.11475C131.15 9.521 130.974 9.87646 130.754 10.1812C130.538 10.4816 130.276 10.7144 129.967 10.8794C129.658 11.0444 129.296 11.127 128.881 11.127C128.462 11.127 128.086 11.0402 127.751 10.8667C127.421 10.6932 127.14 10.4499 126.907 10.1367C126.679 9.82357 126.503 9.4554 126.38 9.03223C126.262 8.60905 126.203 8.14779 126.203 7.64844ZM127.885 7.51514V7.64844C127.885 7.94466 127.91 8.22184 127.961 8.47998C128.012 8.73812 128.094 8.96663 128.208 9.16553C128.323 9.36019 128.469 9.51253 128.646 9.62256C128.828 9.73258 129.049 9.7876 129.307 9.7876C129.637 9.7876 129.908 9.71566 130.119 9.57178C130.335 9.42367 130.502 9.22266 130.621 8.96875C130.739 8.71061 130.815 8.42074 130.849 8.09912V7.10254C130.832 6.84863 130.788 6.61377 130.716 6.39795C130.648 6.18213 130.551 5.99593 130.424 5.83936C130.301 5.68278 130.149 5.56006 129.967 5.47119C129.785 5.38232 129.569 5.33789 129.319 5.33789C129.061 5.33789 128.841 5.39502 128.659 5.50928C128.477 5.6193 128.329 5.77376 128.215 5.97266C128.101 6.17155 128.016 6.40218 127.961 6.66455C127.91 6.92692 127.885 7.21045 127.885 7.51514ZM137.051 1.25H138.733V9.48291L138.568 11H137.051V1.25ZM143.151 7.49609V7.62939C143.151 8.14144 143.094 8.61117 142.979 9.03857C142.869 9.46598 142.702 9.83626 142.478 10.1494C142.254 10.4583 141.974 10.6995 141.64 10.873C141.31 11.0423 140.923 11.127 140.479 11.127C140.055 11.127 139.687 11.0444 139.374 10.8794C139.065 10.7144 138.805 10.4816 138.593 10.1812C138.382 9.87646 138.212 9.51888 138.085 9.1084C137.958 8.69368 137.863 8.24089 137.8 7.75V7.38818C137.863 6.89307 137.958 6.44027 138.085 6.02979C138.212 5.6193 138.382 5.26172 138.593 4.95703C138.805 4.65234 139.065 4.41748 139.374 4.25244C139.683 4.0874 140.047 4.00488 140.466 4.00488C140.914 4.00488 141.306 4.09163 141.64 4.26514C141.979 4.43441 142.258 4.67562 142.478 4.98877C142.702 5.29769 142.869 5.66585 142.979 6.09326C143.094 6.51644 143.151 6.98405 143.151 7.49609ZM141.469 7.62939V7.49609C141.469 7.2041 141.445 6.92904 141.399 6.6709C141.352 6.40853 141.276 6.1779 141.17 5.979C141.065 5.78011 140.921 5.62354 140.739 5.50928C140.557 5.39502 140.328 5.33789 140.053 5.33789C139.791 5.33789 139.567 5.38232 139.38 5.47119C139.198 5.56006 139.046 5.68278 138.923 5.83936C138.805 5.99593 138.712 6.18001 138.644 6.3916C138.581 6.60319 138.538 6.83171 138.517 7.07715V8.06738C138.547 8.39323 138.617 8.68734 138.727 8.94971C138.837 9.20785 139 9.41309 139.215 9.56543C139.435 9.71777 139.719 9.79395 140.066 9.79395C140.337 9.79395 140.563 9.74105 140.745 9.63525C140.927 9.52523 141.071 9.37288 141.177 9.17822C141.283 8.97933 141.357 8.7487 141.399 8.48633C141.445 8.22396 141.469 7.93831 141.469 7.62939ZM146.306 10.2383L148.146 4.13184H149.943L147.188 12.041C147.125 12.2103 147.042 12.3944 146.94 12.5933C146.843 12.7922 146.712 12.9805 146.547 13.1582C146.382 13.3402 146.174 13.4883 145.925 13.6025C145.679 13.7168 145.381 13.7739 145.03 13.7739C144.877 13.7739 144.742 13.7633 144.624 13.7422C144.505 13.721 144.38 13.6935 144.249 13.6597V12.4028C144.291 12.4071 144.34 12.4092 144.395 12.4092C144.454 12.4134 144.505 12.4155 144.547 12.4155C144.793 12.4155 144.996 12.3859 145.157 12.3267C145.318 12.2716 145.447 12.1807 145.544 12.0537C145.646 11.931 145.73 11.7702 145.798 11.5713L146.306 10.2383ZM145.398 4.13184L146.953 9.19092L147.226 10.9619L146.071 11.1714L143.589 4.13184H145.398Z" fill="white"/>
</svg>
