<svg width="48" height="48" viewBox="0 0 48 48" fill="none" xmlns="http://www.w3.org/2000/svg">
<path d="M24 42C33.9411 42 42 33.9411 42 24C42 14.0589 33.9411 6 24 6C14.0589 6 6 14.0589 6 24C6 33.9411 14.0589 42 24 42Z" stroke="#AF7AB2" stroke-width="3" stroke-miterlimit="10"/>
<path d="M19.4375 20.25C19.4375 21.4581 18.4581 22.4375 17.25 22.4375C16.0419 22.4375 15.0625 21.4581 15.0625 20.25C15.0625 19.0419 16.0419 18.0625 17.25 18.0625C18.4581 18.0625 19.4375 19.0419 19.4375 20.25Z" fill="black" stroke="#AF7AB2" stroke-width="0.125"/>
<path d="M32.9375 20.25C32.9375 21.4581 31.9581 22.4375 30.75 22.4375C29.5419 22.4375 28.5625 21.4581 28.5625 20.25C28.5625 19.0419 29.5419 18.0625 30.75 18.0625C31.9581 18.0625 32.9375 19.0419 32.9375 20.25Z" fill="black" stroke="#AF7AB2" stroke-width="0.125"/>
<path d="M19.4375 20.25C19.4375 21.4581 18.4581 22.4375 17.25 22.4375C16.0419 22.4375 15.0625 21.4581 15.0625 20.25C15.0625 19.0419 16.0419 18.0625 17.25 18.0625C18.4581 18.0625 19.4375 19.0419 19.4375 20.25Z" fill="#AF7AB2" stroke="#AF7AB2" stroke-width="0.125"/>
<path d="M32.9375 20.25C32.9375 21.4581 31.9581 22.4375 30.75 22.4375C29.5419 22.4375 28.5625 21.4581 28.5625 20.25C28.5625 19.0419 29.5419 18.0625 30.75 18.0625C31.9581 18.0625 32.9375 19.0419 32.9375 20.25Z" fill="#AF7AB2" stroke="#AF7AB2" stroke-width="0.125"/>
<path d="M31.7998 33.0001C31.0069 31.634 29.869 30.5001 28.5002 29.7119C27.1313 28.9237 25.5794 28.5088 23.9998 28.5088C22.4202 28.5088 20.8684 28.9237 19.4995 29.7119C18.1306 30.5001 16.9928 31.634 16.1998 33.0001" stroke="#AF7AB2" stroke-width="3" stroke-linecap="round" stroke-linejoin="round"/>
</svg>
