<svg width="48" height="48" viewBox="0 0 48 48" fill="#FFFFFF" xmlns="http://www.w3.org/2000/svg">
<path d="M24 42C33.9411 42 42 33.9411 42 24C42 14.0589 33.9411 6 24 6C14.0589 6 6 14.0589 6 24C6 33.9411 14.0589 42 24 42Z" stroke="#A6DAE9" stroke-width="3" stroke-linecap="round" stroke-linejoin="round"/>
<path d="M19.4375 20.25C19.4375 21.4581 18.4581 22.4375 17.25 22.4375C16.0419 22.4375 15.0625 21.4581 15.0625 20.25C15.0625 19.0419 16.0419 18.0625 17.25 18.0625C18.4581 18.0625 19.4375 19.0419 19.4375 20.25Z" fill="#A6DAE9" stroke="#A6DAE9" stroke-width="0.125"/>
<path d="M32.9375 20.25C32.9375 21.4581 31.9581 22.4375 30.75 22.4375C29.5419 22.4375 28.5625 21.4581 28.5625 20.25C28.5625 19.0419 29.5419 18.0625 30.75 18.0625C31.9581 18.0625 32.9375 19.0419 32.9375 20.25Z" fill="#A6DAE9" stroke="#A6DAE9" stroke-width="0.125"/>
<path d="M31.7992 28.5C31.0063 29.8661 29.8684 31 28.4995 31.7882C27.1307 32.5764 25.5788 32.9913 23.9992 32.9913C22.4196 32.9913 20.8678 32.5764 19.4989 31.7882C18.13 31 16.9922 29.8661 16.1992 28.5" stroke="#A6DAE9" stroke-width="3" stroke-linecap="round" stroke-linejoin="round"/>
</svg>
