<svg width="28" height="25" viewBox="0 0 28 25" fill="none" xmlns="http://www.w3.org/2000/svg">
<path d="M2 11H8V24H2C1.73478 24 1.48043 23.8946 1.29289 23.7071C1.10536 23.5196 1 23.2652 1 23V12C1 11.7348 1.10536 11.4804 1.29289 11.2929C1.48043 11.1054 1.73478 11 2 11Z" fill="#2DAEB7" stroke="white" stroke-width="1.5" stroke-linecap="round" stroke-linejoin="round"/>
<path d="M8 11L13 1C14.0609 1 15.0783 1.42143 15.8284 2.17157C16.5786 2.92172 17 3.93913 17 5V8H24.7375C25.0211 7.9993 25.3015 8.05929 25.56 8.17595C25.8185 8.29262 26.049 8.46324 26.2361 8.67637C26.4232 8.8895 26.5625 9.14019 26.6447 9.41161C26.7268 9.68303 26.75 9.9689 26.7125 10.25L25.2125 22.25C25.1518 22.7317 24.918 23.1749 24.5546 23.4969C24.1912 23.8189 23.723 23.9977 23.2375 24H8" fill="#2DAEB7"/>
<path d="M8 11L13 1C14.0609 1 15.0783 1.42143 15.8284 2.17157C16.5786 2.92172 17 3.93913 17 5V8H24.7375C25.0211 7.9993 25.3015 8.05929 25.56 8.17595C25.8185 8.29262 26.049 8.46324 26.2361 8.67637C26.4232 8.8895 26.5625 9.14019 26.6447 9.41161C26.7268 9.68303 26.75 9.9689 26.7125 10.25L25.2125 22.25C25.1518 22.7317 24.918 23.1749 24.5546 23.4969C24.1912 23.8189 23.723 23.9977 23.2375 24H8" stroke="white" stroke-width="1.5" stroke-linecap="round" stroke-linejoin="round"/>
</svg>
